<svg width="800" height="400" viewBox="0 0 800 400" xmlns="http://www.w3.org/2000/svg"><defs><pattern id="satori_pattern_id_0" x="0" y="0" width="1" height="1" patternUnits="objectBoundingBox"><linearGradient id="satori_biid_0" x1="0" y1="0" x2="0" y2="1" spreadMethod="pad"><stop offset="0%" stop-color="#1a1a1a"/><stop offset="100%" stop-color="#121212"/></linearGradient><rect x="0" y="0" width="800" height="400" fill="url(#satori_biid_0)"/></pattern></defs><mask id="satori_om-id"><rect x="0" y="0" width="800" height="400" fill="#fff"/></mask><rect x="0" y="0" width="800" height="400" fill="url(#satori_pattern_id_0)"/><mask id="satori_om-id-0"><rect x="300" y="20" width="200" height="200" fill="#fff"/></mask><clipPath id="satori_cp-id-0-0"><rect x="300" y="20" width="200" height="200"/></clipPath><mask id="satori_om-id-0-0"><rect x="300" y="20" width="200" height="200" fill="#fff"/></mask><image x="300" y="20" width="200" height="200" href="data:image/svg+xml;utf8,%3Csvg  xmlns=%22http://www.w3.org/2000/svg%22 width=%22200%22 height=%22200%22 viewBox=%220 0 100 100%22%3E%3Cpath d=%22M25 75 L75 75 L50 25 Z%22 fill=%22none%22 stroke=%22white%22 stroke-width=%222%22 stroke-linejoin=%22round%22%3E%3C/path%3E%3C/svg%3E" preserveAspectRatio="none" clip-path="url(#satori_cp-id-0-0)" mask="url(#satori_om-id-0-0)"/><mask id="satori_om-id-0-0-0"><rect x="300" y="20" width="0" height="200" fill="#fff"/></mask><mask id="satori_om-id-1"><rect x="250" y="260" width="300" height="40" fill="#fff"/></mask><g opacity="0.9"></g><path fill="white" d="M265.3 278L265.3 278L262.8 278.7Q262.6 278.1 262.1 277.5Q261.7 276.9 260.9 276.5Q260.1 276.1 258.9 276.1L258.9 276.1Q257.3 276.1 256.2 276.9Q255.1 277.6 255.1 278.8L255.1 278.8Q255.1 279.8 255.8 280.4Q256.6 281.0 258.2 281.4L258.2 281.4L260.8 282.1Q263.2 282.7 264.4 283.9Q265.6 285.1 265.6 287.0L265.6 287.0Q265.6 288.5 264.7 289.7Q263.8 290.9 262.3 291.6Q260.7 292.3 258.6 292.3L258.6 292.3Q255.8 292.3 254.0 291.1Q252.2 290.0 251.7 287.7L251.7 287.7L254.4 287Q254.7 288.5 255.8 289.2Q256.8 289.9 258.5 289.9L258.5 289.9Q260.5 289.9 261.6 289.1Q262.8 288.3 262.8 287.1L262.8 287.1Q262.8 286.2 262.1 285.5Q261.4 284.9 260.1 284.6L260.1 284.6L257.1 283.9Q254.6 283.3 253.5 282.0Q252.3 280.8 252.3 278.9L252.3 278.9Q252.3 277.4 253.2 276.2Q254.0 275.1 255.5 274.4Q257.0 273.7 258.9 273.7L258.9 273.7Q261.6 273.7 263.1 274.9Q264.6 276.1 265.3 278ZM275.1 292.3L275.1 292.3Q272.7 292.3 270.8 291.2Q269.0 290.0 268.0 287.9Q266.9 285.9 266.9 283.1L266.9 283.1Q266.9 280.3 268.0 278.2Q269.0 276.1 270.8 274.9Q272.7 273.7 275.1 273.7L275.1 273.7Q277.5 273.7 279.4 274.9Q281.2 276.1 282.2 278.2Q283.3 280.3 283.3 283.1L283.3 283.1Q283.3 285.9 282.2 287.9Q281.2 290.0 279.4 291.2Q277.5 292.3 275.1 292.3ZM275.1 289.9L275.1 289.9Q276.9 289.9 278.1 288.9Q279.3 288.0 279.9 286.4Q280.5 284.9 280.5 283.1L280.5 283.1Q280.5 281.3 279.9 279.7Q279.3 278.1 278.1 277.2Q276.9 276.2 275.1 276.2L275.1 276.2Q273.2 276.2 272.0 277.2Q270.9 278.1 270.3 279.7Q269.7 281.3 269.7 283.1L269.7 283.1Q269.7 284.9 270.3 286.4Q270.9 288.0 272.0 288.9Q273.2 289.9 275.1 289.9ZM288.2 292.0L285.5 292.0L285.5 274.0L288.1 274.0L288.1 276.8L288.4 276.8Q288.9 275.3 290.2 274.5Q291.4 273.7 293.2 273.7L293.2 273.7Q295.0 273.7 296.2 274.5Q297.4 275.3 298.0 276.8L298.0 276.8L298.2 276.8Q298.9 275.4 300.3 274.6Q301.7 273.7 303.6 273.7L303.6 273.7Q306.0 273.7 307.6 275.2Q309.1 276.7 309.1 279.9L309.1 279.9L309.1 292.0L306.3 292.0L306.3 279.9Q306.3 277.9 305.2 277.1Q304.1 276.2 302.7 276.2L302.7 276.2Q300.8 276.2 299.7 277.4Q298.7 278.5 298.7 280.3L298.7 280.3L298.7 292.0L295.9 292.0L295.9 279.6Q295.9 278.1 294.9 277.2Q293.9 276.2 292.3 276.2L292.3 276.2Q291.2 276.2 290.3 276.8Q289.4 277.4 288.8 278.4Q288.2 279.4 288.2 280.7L288.2 280.7L288.2 292.0ZM319.7 292.3L319.7 292.3Q317.1 292.3 315.2 291.2Q313.3 290.0 312.3 288.0Q311.3 285.9 311.3 283.1L311.3 283.1Q311.3 280.3 312.3 278.2Q313.3 276.1 315.2 274.9Q317.0 273.7 319.4 273.7L319.4 273.7Q320.8 273.7 322.2 274.2Q323.6 274.7 324.7 275.7Q325.8 276.8 326.5 278.5Q327.2 280.2 327.2 282.7L327.2 282.7L327.2 283.9L313.3 283.9L313.3 281.5L324.3 281.5Q324.3 280.0 323.7 278.8Q323.1 277.6 322.0 276.9Q320.9 276.2 319.4 276.2L319.4 276.2Q317.8 276.2 316.6 277.0Q315.4 277.8 314.7 279.1Q314.1 280.4 314.1 281.9L314.1 281.9L314.1 283.5Q314.1 285.6 314.8 287.0Q315.5 288.4 316.8 289.1Q318.0 289.9 319.7 289.9L319.7 289.9Q320.8 289.9 321.7 289.5Q322.6 289.2 323.2 288.6Q323.9 288.0 324.2 287.0L324.2 287.0L326.9 287.8Q326.5 289.2 325.5 290.2Q324.5 291.2 323.0 291.8Q321.5 292.3 319.7 292.3ZM336.2 292.0L333.5 292.0L328.0 274.0L330.9 274.0L334.8 287.8L335.0 287.8L338.8 274.0L341.8 274.0L345.5 287.7L345.7 287.7L349.6 274.0L352.5 274.0L347.0 292.0L344.3 292.0L340.4 278.1L340.1 278.1L336.2 292.0ZM357.0 281.1L357.0 281.1L357.0 292.0L354.2 292.0L354.2 268.0L357.0 268.0L357.0 276.8L357.2 276.8Q357.8 275.4 359.1 274.6Q360.4 273.7 362.5 273.7L362.5 273.7Q364.3 273.7 365.7 274.5Q367.1 275.2 367.9 276.7Q368.6 278.2 368.6 280.5L368.6 280.5L368.6 292.0L365.9 292.0L365.9 280.7Q365.9 278.6 364.8 277.4Q363.6 276.2 361.7 276.2L361.7 276.2Q360.3 276.2 359.3 276.8Q358.2 277.4 357.6 278.5Q357.0 279.6 357.0 281.1ZM379.2 292.3L379.2 292.3Q376.6 292.3 374.8 291.2Q372.9 290.0 371.9 288.0Q370.8 285.9 370.8 283.1L370.8 283.1Q370.8 280.3 371.9 278.2Q372.9 276.1 374.7 274.9Q376.5 273.7 379.0 273.7L379.0 273.7Q380.4 273.7 381.7 274.2Q383.1 274.7 384.2 275.7Q385.4 276.8 386.0 278.5Q386.7 280.2 386.7 282.7L386.7 282.7L386.7 283.9L372.8 283.9L372.8 281.5L383.9 281.5Q383.9 280.0 383.3 278.8Q382.7 277.6 381.6 276.9Q380.5 276.2 379.0 276.2L379.0 276.2Q377.3 276.2 376.1 277.0Q374.9 277.8 374.3 279.1Q373.6 280.4 373.6 281.9L373.6 281.9L373.6 283.5Q373.6 285.6 374.3 287.0Q375.0 288.4 376.3 289.1Q377.6 289.9 379.2 289.9L379.2 289.9Q380.3 289.9 381.2 289.5Q382.1 289.2 382.7 288.6Q383.4 288.0 383.7 287.0L383.7 287.0L386.4 287.8Q386.0 289.2 385.0 290.2Q384.0 291.2 382.5 291.8Q381.1 292.3 379.2 292.3ZM391.7 292.0L388.9 292.0L388.9 274.0L391.6 274.0L391.6 276.7L391.8 276.7Q392.3 275.4 393.5 274.5Q394.8 273.7 396.5 273.7L396.5 273.7Q396.8 273.7 397.2 273.7Q397.7 273.7 397.9 273.7L397.9 273.7L397.9 276.5Q397.8 276.5 397.3 276.4Q396.8 276.4 396.2 276.4L396.2 276.4Q394.9 276.4 393.9 276.9Q392.9 277.4 392.3 278.4Q391.7 279.4 391.7 280.6L391.7 280.6L391.7 292.0ZM406.2 292.3L406.2 292.3Q403.6 292.3 401.7 291.2Q399.8 290.0 398.8 288.0Q397.8 285.9 397.8 283.1L397.8 283.1Q397.8 280.3 398.8 278.2Q399.8 276.1 401.6 274.9Q403.5 273.7 405.9 273.7L405.9 273.7Q407.3 273.7 408.7 274.2Q410.0 274.7 411.2 275.7Q412.3 276.8 413.0 278.5Q413.6 280.2 413.6 282.7L413.6 282.7L413.6 283.9L399.8 283.9L399.8 281.5L410.8 281.5Q410.8 280.0 410.2 278.8Q409.6 277.6 408.5 276.9Q407.4 276.2 405.9 276.2L405.9 276.2Q404.2 276.2 403.0 277.0Q401.8 277.8 401.2 279.1Q400.5 280.4 400.5 281.9L400.5 281.9L400.5 283.5Q400.5 285.6 401.3 287.0Q402.0 288.4 403.2 289.1Q404.5 289.9 406.2 289.9L406.2 289.9Q407.3 289.9 408.1 289.5Q409.0 289.2 409.7 288.6Q410.3 288.0 410.7 287.0L410.7 287.0L413.3 287.8Q412.9 289.2 411.9 290.2Q410.9 291.2 409.5 291.8Q408 292.3 406.2 292.3Z M436.4 278L436.4 278L434.0 278.7Q433.7 278.1 433.3 277.5Q432.8 276.9 432.0 276.5Q431.3 276.1 430.1 276.1L430.1 276.1Q428.4 276.1 427.3 276.9Q426.2 277.6 426.2 278.8L426.2 278.8Q426.2 279.8 427.0 280.4Q427.7 281.0 429.3 281.4L429.3 281.4L432.0 282.1Q434.4 282.7 435.6 283.9Q436.8 285.1 436.8 287.0L436.8 287.0Q436.8 288.5 435.9 289.7Q435.0 290.9 433.4 291.6Q431.8 292.3 429.7 292.3L429.7 292.3Q427.0 292.3 425.2 291.1Q423.4 290.0 422.9 287.7L422.9 287.7L425.5 287Q425.9 288.5 426.9 289.2Q428.0 289.9 429.7 289.9L429.7 289.9Q431.6 289.9 432.8 289.1Q433.9 288.3 433.9 287.1L433.9 287.1Q433.9 286.2 433.3 285.5Q432.6 284.9 431.2 284.6L431.2 284.6L428.2 283.9Q425.8 283.3 424.6 282.0Q423.5 280.8 423.5 278.9L423.5 278.9Q423.5 277.4 424.3 276.2Q425.2 275.1 426.7 274.4Q428.2 273.7 430.1 273.7L430.1 273.7Q432.7 273.7 434.3 274.9Q435.8 276.1 436.4 278ZM446.3 292.3L446.3 292.3Q443.8 292.3 442.0 291.2Q440.1 290.0 439.1 287.9Q438.1 285.9 438.1 283.1L438.1 283.1Q438.1 280.3 439.1 278.2Q440.1 276.1 442.0 274.9Q443.8 273.7 446.3 273.7L446.3 273.7Q448.7 273.7 450.5 274.9Q452.4 276.1 453.4 278.2Q454.4 280.3 454.4 283.1L454.4 283.1Q454.4 285.9 453.4 287.9Q452.4 290.0 450.5 291.2Q448.7 292.3 446.3 292.3ZM446.3 289.9L446.3 289.9Q448.1 289.9 449.3 288.9Q450.5 288.0 451.1 286.4Q451.6 284.9 451.6 283.1L451.6 283.1Q451.6 281.3 451.1 279.7Q450.5 278.1 449.3 277.2Q448.1 276.2 446.3 276.2L446.3 276.2Q444.4 276.2 443.2 277.2Q442.0 278.1 441.4 279.7Q440.9 281.3 440.9 283.1L440.9 283.1Q440.9 284.9 441.4 286.4Q442.0 288.0 443.2 288.9Q444.4 289.9 446.3 289.9ZM459.4 292.0L456.6 292.0L456.6 274.0L459.3 274.0L459.3 276.8L459.5 276.8Q460.1 275.3 461.3 274.5Q462.6 273.7 464.4 273.7L464.4 273.7Q466.1 273.7 467.3 274.5Q468.5 275.3 469.2 276.8L469.2 276.8L469.4 276.8Q470.1 275.4 471.4 274.6Q472.8 273.7 474.8 273.7L474.8 273.7Q477.2 273.7 478.7 275.2Q480.3 276.7 480.3 279.9L480.3 279.9L480.3 292.0L477.5 292.0L477.5 279.9Q477.5 277.9 476.4 277.1Q475.3 276.2 473.8 276.2L473.8 276.2Q471.9 276.2 470.9 277.4Q469.8 278.5 469.8 280.3L469.8 280.3L469.8 292.0L467.0 292.0L467.0 279.6Q467.0 278.1 466.0 277.2Q465.0 276.2 463.5 276.2L463.5 276.2Q462.4 276.2 461.5 276.8Q460.5 277.4 460.0 278.4Q459.4 279.4 459.4 280.7L459.4 280.7L459.4 292.0ZM490.9 292.3L490.9 292.3Q488.3 292.3 486.4 291.2Q484.5 290.0 483.5 288.0Q482.5 285.9 482.5 283.1L482.5 283.1Q482.5 280.3 483.5 278.2Q484.5 276.1 486.3 274.9Q488.1 273.7 490.6 273.7L490.6 273.7Q492.0 273.7 493.4 274.2Q494.7 274.7 495.9 275.7Q497.0 276.8 497.6 278.5Q498.3 280.2 498.3 282.7L498.3 282.7L498.3 283.9L484.4 283.9L484.4 281.5L495.5 281.5Q495.5 280.0 494.9 278.8Q494.3 277.6 493.2 276.9Q492.1 276.2 490.6 276.2L490.6 276.2Q488.9 276.2 487.7 277.0Q486.5 277.8 485.9 279.1Q485.2 280.4 485.2 281.9L485.2 281.9L485.2 283.5Q485.2 285.6 485.9 287.0Q486.7 288.4 487.9 289.1Q489.2 289.9 490.9 289.9L490.9 289.9Q491.9 289.9 492.8 289.5Q493.7 289.2 494.4 288.6Q495.0 288.0 495.4 287.0L495.4 287.0L498.0 287.8Q497.6 289.2 496.6 290.2Q495.6 291.2 494.2 291.8Q492.7 292.3 490.9 292.3ZM507.3 292.3L507.3 292.3Q505.1 292.3 503.4 291.2Q501.6 290.1 500.7 288.0Q499.7 285.9 499.7 283.0L499.7 283.0Q499.7 280.2 500.7 278.1Q501.6 276.0 503.4 274.9Q505.1 273.7 507.4 273.7L507.4 273.7Q509.1 273.7 510.2 274.3Q511.2 274.9 511.7 275.6Q512.3 276.4 512.6 276.8L512.6 276.8L512.8 276.8L512.8 268.0L515.6 268.0L515.6 292.0L512.9 292.0L512.9 289.2L512.6 289.2Q512.3 289.7 511.7 290.4Q511.1 291.2 510.1 291.8Q509.1 292.3 507.3 292.3ZM507.7 289.9L507.7 289.9Q509.4 289.9 510.5 289.0Q511.7 288.1 512.3 286.6Q512.9 285.0 512.9 283.0L512.9 283.0Q512.9 281.0 512.3 279.4Q511.7 277.9 510.5 277.1Q509.4 276.2 507.7 276.2L507.7 276.2Q505.9 276.2 504.8 277.1Q503.6 278.0 503.0 279.5Q502.5 281.1 502.5 283.0L502.5 283.0Q502.5 284.9 503.0 286.5Q503.6 288.0 504.8 288.9Q506.0 289.9 507.7 289.9ZM524.3 292.4L524.3 292.4Q522.6 292.4 521.2 291.7Q519.8 291.1 519.0 289.9Q518.2 288.6 518.2 286.9L518.2 286.9Q518.2 285.3 518.8 284.3Q519.4 283.4 520.4 282.8Q521.4 282.3 522.7 282.0Q523.9 281.7 525.2 281.6L525.2 281.6Q526.8 281.4 527.8 281.2Q528.8 281.1 529.3 280.9Q529.8 280.6 529.8 279.9L529.8 279.9L529.8 279.8Q529.8 278.1 528.9 277.1Q527.9 276.2 526 276.2L526 276.2Q524.0 276.2 522.9 277.0Q521.8 277.9 521.3 278.9L521.3 278.9L518.7 278.0Q519.4 276.3 520.6 275.4Q521.7 274.5 523.1 274.1Q524.5 273.7 525.9 273.7L525.9 273.7Q526.8 273.7 527.9 273.9Q529.0 274.1 530.1 274.8Q531.2 275.4 531.9 276.7Q532.6 278.0 532.6 280.1L532.6 280.1L532.6 292.0L529.8 292.0L529.8 289.5L529.7 289.5Q529.4 290.1 528.7 290.8Q528.1 291.5 527.0 291.9Q525.9 292.4 524.3 292.4ZM524.7 289.9L524.7 289.9Q526.4 289.9 527.5 289.3Q528.6 288.6 529.2 287.6Q529.8 286.6 529.8 285.5L529.8 285.5L529.8 282.9Q529.6 283.1 529.0 283.3Q528.4 283.5 527.7 283.6Q526.9 283.7 526.2 283.8Q525.5 283.9 525.0 284.0L525.0 284.0Q523.9 284.1 523.0 284.4Q522.1 284.7 521.5 285.3Q520.9 285.9 520.9 287L520.9 287Q520.9 288.4 522.0 289.2Q523.1 289.9 524.7 289.9ZM536.8 298.7L536.8 298.7Q536.0 298.7 535.5 298.6Q534.9 298.5 534.7 298.4L534.7 298.4L535.4 296.0Q536.4 296.2 537.2 296.1Q538.0 296.1 538.6 295.5Q539.2 294.8 539.7 293.5L539.7 293.5L540.2 292.1L533.6 274.0L536.6 274.0L541.5 288.3L541.7 288.3L546.7 274.0L549.7 274.0L542.0 294.6Q541.5 296.0 540.8 296.9Q540.0 297.8 539.0 298.3Q538.0 298.7 536.8 298.7Z " opacity="0.9"/></svg>